<svg version="1" xmlns="http://www.w3.org/2000/svg" width="682.667" height="682.667" viewBox="0 0 512.000000 512.000000"><path d="M232 17c-16.9 2.1-42.4 8.7-50.1 13.1-2 1.1-16.8 1.5-79.4 1.9l-77 .5-3.1 2.2c-6.9 4.9-6.4-7-6.2 158.5.3 147.5.3 149.3 2.3 152 1.1 1.5 3.6 3.6 5.6 4.7 3.4 1.9 5.3 2.1 22.8 2.1H66v36.2l-2.3-.7c-5.9-1.9-8.7-1.7-13.1.9-5.1 3-8.3 7-9.2 11.5-.5 2.4-1.2 3.1-2.9 3.1-3 0-10.1 5.3-12 8.9-.8 1.7-1.5 5-1.5 7.5 0 4.1-.3 4.7-3.1 6.1-3.7 2-5.9 6.8-5.9 13.3 0 4.9 3.2 11.5 9.3 19.3l2.5 3.2-1.9 4.1c-2.4 5.6-4.3 17.5-3.5 22.1.4 2.1 1.8 4.8 3.1 6.1l2.4 2.4H446v-4c0-2.2.2-4 .4-4s2 .7 3.9 1.5c2 .8 4.8 1.5 6.2 1.5 1.4 0 2.5.4 2.5 1 0 2 6.3 4.2 10.8 3.7 5.4-.6 8.3-2.6 14.2-9.9 7.9-9.8 12-17.6 12-23.1 0-6.4-2.2-11.2-5.9-13.2-2.8-1.4-3.1-2-3.1-6.1 0-2.5-.7-5.8-1.5-7.5-1.9-3.6-9-8.9-12-8.9-1.7 0-2.4-.7-2.9-3.1-.9-4.5-4.1-8.5-9.2-11.5-4.4-2.6-7.2-2.8-13.1-.9l-2.3.7v-60.1l20.3-.3c22-.3 22.5-.5 27.3-6.7 1.9-2.5 1.9-5.8 2.2-151.9l.2-149.4-2.1-3.6c-1.1-2.1-3.2-4.6-4.7-5.7-2.6-1.9-4.7-2-77.7-2.5l-75-.5-5.7-2.7c-7.6-3.7-20.9-7.4-34.8-9.9-13.1-2.4-50.7-3.5-64-1.9zm35.2 243.5c3.7.7 8.8 2.3 11.3 3.4 6.3 2.8 15.5 10.2 19.3 15.6 2.7 3.8 6.2 10.7 6.2 12.1 0 .2-21.6.4-48 .4s-48-.2-48-.4c0-1.4 3.5-8.3 6.2-12.1 3.8-5.4 13-12.8 19.3-15.6 10.4-4.6 22.4-5.8 33.7-3.4z"/><path d="M239.9 272.8c-2.6 1.8-2.4 5.8.6 8.8 2 2 3 2.3 5.2 1.7 3.6-1 17-1 20.5 0 5 1.3 10.2-7 6.4-10.2-2.1-1.8-30.3-2-32.7-.3z"/></svg>